<mxfile host="app.diagrams.net" agent="Mozilla/5.0 (Windows NT 10.0; Win64; x64) AppleWebKit/537.36 (KHTML, like Gecko) Chrome/129.0.0.0 Safari/537.36" version="24.7.17">
  <diagram name="Page-1" id="zdLS6XzUSG3x8lp1yBCd">
    <mxGraphModel dx="1195" dy="701" grid="1" gridSize="10" guides="1" tooltips="1" connect="1" arrows="1" fold="1" page="1" pageScale="1" pageWidth="850" pageHeight="1100" background="none" math="0" shadow="0">
      <root>
        <mxCell id="0" />
        <mxCell id="1" parent="0" />
        <mxCell id="_PjYLiZ7u1xAUvMMXe8_-1" value="&lt;font face=&quot;Helvetica&quot; style=&quot;font-size: 24px;&quot;&gt;1&lt;/font&gt;" style="ellipse;whiteSpace=wrap;html=1;aspect=fixed;strokeWidth=2;" parent="1" vertex="1">
          <mxGeometry x="200" y="80" width="40" height="40" as="geometry" />
        </mxCell>
        <mxCell id="_PjYLiZ7u1xAUvMMXe8_-2" value="&lt;font face=&quot;Helvetica&quot; style=&quot;font-size: 24px;&quot;&gt;0&lt;/font&gt;" style="ellipse;whiteSpace=wrap;html=1;aspect=fixed;strokeWidth=2;" parent="1" vertex="1">
          <mxGeometry x="120" y="120" width="40" height="40" as="geometry" />
        </mxCell>
        <mxCell id="_PjYLiZ7u1xAUvMMXe8_-3" value="&lt;font face=&quot;Helvetica&quot; style=&quot;font-size: 24px;&quot;&gt;2&lt;/font&gt;" style="ellipse;whiteSpace=wrap;html=1;aspect=fixed;strokeWidth=2;" parent="1" vertex="1">
          <mxGeometry x="200" y="280" width="40" height="40" as="geometry" />
        </mxCell>
        <mxCell id="_PjYLiZ7u1xAUvMMXe8_-4" value="&lt;font face=&quot;Helvetica&quot; style=&quot;font-size: 24px;&quot;&gt;3&lt;/font&gt;" style="ellipse;whiteSpace=wrap;html=1;aspect=fixed;strokeWidth=2;" parent="1" vertex="1">
          <mxGeometry x="270" y="170" width="40" height="40" as="geometry" />
        </mxCell>
        <mxCell id="_PjYLiZ7u1xAUvMMXe8_-5" value="&lt;font face=&quot;Helvetica&quot; style=&quot;font-size: 24px;&quot;&gt;4&lt;/font&gt;" style="ellipse;whiteSpace=wrap;html=1;aspect=fixed;strokeWidth=2;" parent="1" vertex="1">
          <mxGeometry x="380" y="170" width="40" height="40" as="geometry" />
        </mxCell>
        <mxCell id="_PjYLiZ7u1xAUvMMXe8_-12" value="" style="endArrow=classic;html=1;rounded=0;strokeWidth=2;" parent="1" source="_PjYLiZ7u1xAUvMMXe8_-2" target="_PjYLiZ7u1xAUvMMXe8_-1" edge="1">
          <mxGeometry width="50" height="50" relative="1" as="geometry">
            <mxPoint x="410" y="370" as="sourcePoint" />
            <mxPoint x="650" y="450" as="targetPoint" />
          </mxGeometry>
        </mxCell>
        <mxCell id="_PjYLiZ7u1xAUvMMXe8_-14" value="" style="endArrow=classic;html=1;rounded=0;strokeWidth=2;" parent="1" source="_PjYLiZ7u1xAUvMMXe8_-2" target="_PjYLiZ7u1xAUvMMXe8_-3" edge="1">
          <mxGeometry width="50" height="50" relative="1" as="geometry">
            <mxPoint x="600" y="500" as="sourcePoint" />
            <mxPoint x="650" y="450" as="targetPoint" />
          </mxGeometry>
        </mxCell>
        <mxCell id="_PjYLiZ7u1xAUvMMXe8_-15" value="" style="endArrow=classic;html=1;rounded=0;strokeWidth=2;" parent="1" source="_PjYLiZ7u1xAUvMMXe8_-1" target="_PjYLiZ7u1xAUvMMXe8_-3" edge="1">
          <mxGeometry width="50" height="50" relative="1" as="geometry">
            <mxPoint x="416" y="376" as="sourcePoint" />
            <mxPoint x="364" y="324" as="targetPoint" />
          </mxGeometry>
        </mxCell>
        <mxCell id="_PjYLiZ7u1xAUvMMXe8_-17" value="" style="endArrow=classic;html=1;rounded=0;strokeWidth=2;" parent="1" source="_PjYLiZ7u1xAUvMMXe8_-1" target="_PjYLiZ7u1xAUvMMXe8_-4" edge="1">
          <mxGeometry width="50" height="50" relative="1" as="geometry">
            <mxPoint x="390" y="246" as="sourcePoint" />
            <mxPoint x="610" y="350" as="targetPoint" />
          </mxGeometry>
        </mxCell>
        <mxCell id="_PjYLiZ7u1xAUvMMXe8_-19" value="" style="endArrow=classic;html=1;rounded=0;strokeWidth=2;" parent="1" source="_PjYLiZ7u1xAUvMMXe8_-4" target="_PjYLiZ7u1xAUvMMXe8_-5" edge="1">
          <mxGeometry width="50" height="50" relative="1" as="geometry">
            <mxPoint x="404" y="256" as="sourcePoint" />
            <mxPoint x="456" y="204" as="targetPoint" />
          </mxGeometry>
        </mxCell>
        <mxCell id="KTnoUIwEDsyW6izzmTDa-1" value="" style="endArrow=classic;html=1;rounded=0;strokeWidth=2;" edge="1" parent="1" source="_PjYLiZ7u1xAUvMMXe8_-1" target="_PjYLiZ7u1xAUvMMXe8_-5">
          <mxGeometry width="50" height="50" relative="1" as="geometry">
            <mxPoint x="341" y="292" as="sourcePoint" />
            <mxPoint x="319" y="248" as="targetPoint" />
          </mxGeometry>
        </mxCell>
        <mxCell id="KTnoUIwEDsyW6izzmTDa-2" value="" style="endArrow=classic;html=1;rounded=0;strokeWidth=2;" edge="1" parent="1" source="_PjYLiZ7u1xAUvMMXe8_-3" target="_PjYLiZ7u1xAUvMMXe8_-4">
          <mxGeometry width="50" height="50" relative="1" as="geometry">
            <mxPoint x="330" y="309" as="sourcePoint" />
            <mxPoint x="190" y="301" as="targetPoint" />
          </mxGeometry>
        </mxCell>
        <mxCell id="KTnoUIwEDsyW6izzmTDa-3" value="" style="endArrow=classic;html=1;rounded=0;strokeWidth=2;" edge="1" parent="1" source="_PjYLiZ7u1xAUvMMXe8_-3" target="_PjYLiZ7u1xAUvMMXe8_-5">
          <mxGeometry width="50" height="50" relative="1" as="geometry">
            <mxPoint x="275" y="371" as="sourcePoint" />
            <mxPoint x="305" y="249" as="targetPoint" />
          </mxGeometry>
        </mxCell>
      </root>
    </mxGraphModel>
  </diagram>
</mxfile>
